<svg width="24" height="24" viewBox="0 0 24 24" fill="none" xmlns="http://www.w3.org/2000/svg">
<path d="M21.1429 6.85716H8.57143M6.28571 6.85716H2.85714M21.1429 18.2857H8.57143M6.28571 18.2857H2.85714M15.4286 12.5714H2.85714M21.1429 12.5714H17.7143M7.42857 4.57144C7.73168 4.57144 8.02237 4.69185 8.23669 4.90618C8.45102 5.1205 8.57143 5.41119 8.57143 5.7143V8.00001C8.57143 8.30312 8.45102 8.59381 8.23669 8.80813C8.02237 9.02246 7.73168 9.14287 7.42857 9.14287C7.12547 9.14287 6.83478 9.02246 6.62045 8.80813C6.40612 8.59381 6.28571 8.30312 6.28571 8.00001V5.7143C6.28571 5.41119 6.40612 5.1205 6.62045 4.90618C6.83478 4.69185 7.12547 4.57144 7.42857 4.57144V4.57144ZM7.42857 16C7.73168 16 8.02237 16.1204 8.23669 16.3347C8.45102 16.5491 8.57143 16.8398 8.57143 17.1429V19.4286C8.57143 19.7317 8.45102 20.0224 8.23669 20.2367C8.02237 20.451 7.73168 20.5714 7.42857 20.5714C7.12547 20.5714 6.83478 20.451 6.62045 20.2367C6.40612 20.0224 6.28571 19.7317 6.28571 19.4286V17.1429C6.28571 16.8398 6.40612 16.5491 6.62045 16.3347C6.83478 16.1204 7.12547 16 7.42857 16ZM16.5714 10.2857C16.8745 10.2857 17.1652 10.4061 17.3796 10.6205C17.5939 10.8348 17.7143 11.1255 17.7143 11.4286V13.7143C17.7143 14.0174 17.5939 14.3081 17.3796 14.5224C17.1652 14.7367 16.8745 14.8572 16.5714 14.8572C16.2683 14.8572 15.9776 14.7367 15.7633 14.5224C15.549 14.3081 15.4286 14.0174 15.4286 13.7143V11.4286C15.4286 11.1255 15.549 10.8348 15.7633 10.6205C15.9776 10.4061 16.2683 10.2857 16.5714 10.2857V10.2857Z" stroke="black" stroke-linecap="round" stroke-linejoin="round"/>
</svg>
