<svg width="24" height="24" viewBox="0 0 24 24" fill="none" xmlns="http://www.w3.org/2000/svg">
<path d="M16 19C15.2044 19 14.4413 18.6839 13.8787 18.1213C13.3161 17.5587 13 16.7957 13 16C13 15.2044 13.3161 14.4413 13.8787 13.8787C14.4413 13.3161 15.2044 13 16 13C16.7957 13 17.5587 13.3161 18.1213 13.8787C18.6839 14.4413 19 15.2044 19 16C19 16.7957 18.6839 17.5587 18.1213 18.1213C17.5587 18.6839 16.7957 19 16 19ZM8 19C7.20435 19 6.44129 18.6839 5.87868 18.1213C5.31607 17.5587 5 16.7957 5 16C5 15.2044 5.31607 14.4413 5.87868 13.8787C6.44129 13.3161 7.20435 13 8 13C8.79565 13 9.55871 13.3161 10.1213 13.8787C10.6839 14.4413 11 15.2044 11 16C11 16.7957 10.6839 17.5587 10.1213 18.1213C9.55871 18.6839 8.79565 19 8 19ZM16 11C15.2044 11 14.4413 10.6839 13.8787 10.1213C13.3161 9.55871 13 8.79565 13 8C13 7.20435 13.3161 6.44129 13.8787 5.87868C14.4413 5.31607 15.2044 5 16 5C16.7957 5 17.5587 5.31607 18.1213 5.87868C18.6839 6.44129 19 7.20435 19 8C19 8.79565 18.6839 9.55871 18.1213 10.1213C17.5587 10.6839 16.7957 11 16 11ZM8 11C7.20435 11 6.44129 10.6839 5.87868 10.1213C5.31607 9.55871 5 8.79565 5 8C5 7.20435 5.31607 6.44129 5.87868 5.87868C6.44129 5.31607 7.20435 5 8 5C8.79565 5 9.55871 5.31607 10.1213 5.87868C10.6839 6.44129 11 7.20435 11 8C11 8.79565 10.6839 9.55871 10.1213 10.1213C9.55871 10.6839 8.79565 11 8 11Z" fill="black"/>
</svg>
